<svg width="14" height="36" viewBox="0 0 14 36" fill="none" xmlns="http://www.w3.org/2000/svg">
<path fill-rule="evenodd" clip-rule="evenodd" d="M13.6138 0.210585C14.0498 0.549578 14.1285 1.17784 13.7895 1.61385L6.01453 11.6138C5.84138 11.8365 5.58223 11.9758 5.30094 11.9972C5.01966 12.0186 4.74242 11.9202 4.53757 11.7262L0.312502 7.72623C-0.0885582 7.34653 -0.105878 6.71361 0.273818 6.31255C0.653514 5.91149 1.28644 5.89417 1.6875 6.27386L5.11216 9.51608L12.2105 0.386246C12.5495 -0.0497617 13.1778 -0.128408 13.6138 0.210585Z" fill="#141517"/>
<path fill-rule="evenodd" clip-rule="evenodd" d="M13.6138 24.2106C14.0498 24.5496 14.1285 25.1778 13.7895 25.6139L6.01453 35.6138C5.84138 35.8365 5.58223 35.9758 5.30094 35.9972C5.01966 36.0186 4.74242 35.9202 4.53757 35.7262L0.312502 31.7262C-0.0885582 31.3465 -0.105878 30.7136 0.273818 30.3126C0.653514 29.9115 1.28644 29.8942 1.6875 30.2739L5.11216 33.5161L12.2105 24.3862C12.5495 23.9502 13.1778 23.8716 13.6138 24.2106Z" fill="#FE7865"/>
</svg>
